<svg width="24" height="25" viewBox="0 0 24 25" fill="none" xmlns="http://www.w3.org/2000/svg">
<g clip-path="url(#clip0_74_1898)">
<path d="M12 3.11516C15.2063 3.11516 15.5859 3.12922 16.8469 3.18547C18.0188 3.23704 18.6516 3.43391 19.0734 3.59797C19.6313 3.8136 20.0344 4.0761 20.4516 4.49329C20.8734 4.91516 21.1313 5.3136 21.3469 5.87141C21.5109 6.29329 21.7078 6.93079 21.7594 8.09797C21.8156 9.3636 21.8297 9.74329 21.8297 12.9448C21.8297 16.1511 21.8156 16.5308 21.7594 17.7917C21.7078 18.9636 21.5109 19.5964 21.3469 20.0183C21.1313 20.5761 20.8688 20.9792 20.4516 21.3964C20.0297 21.8183 19.6313 22.0761 19.0734 22.2917C18.6516 22.4558 18.0141 22.6527 16.8469 22.7042C15.5813 22.7605 15.2016 22.7745 12 22.7745C8.79375 22.7745 8.41406 22.7605 7.15313 22.7042C5.98125 22.6527 5.34844 22.4558 4.92656 22.2917C4.36875 22.0761 3.96563 21.8136 3.54844 21.3964C3.12656 20.9745 2.86875 20.5761 2.65313 20.0183C2.48906 19.5964 2.29219 18.9589 2.24063 17.7917C2.18438 16.5261 2.17031 16.1464 2.17031 12.9448C2.17031 9.7386 2.18438 9.35891 2.24063 8.09797C2.29219 6.9261 2.48906 6.29329 2.65313 5.87141C2.86875 5.3136 3.13125 4.91047 3.54844 4.49329C3.97031 4.07141 4.36875 3.8136 4.92656 3.59797C5.34844 3.43391 5.98594 3.23704 7.15313 3.18547C8.41406 3.12922 8.79375 3.11516 12 3.11516ZM12 0.954224C8.74219 0.954224 8.33438 0.968286 7.05469 1.02454C5.77969 1.08079 4.90313 1.28704 4.14375 1.58235C3.35156 1.89172 2.68125 2.29954 2.01563 2.96985C1.34531 3.63547 0.9375 4.30579 0.628125 5.09329C0.332812 5.85735 0.126563 6.72922 0.0703125 8.00422C0.0140625 9.2886 0 9.69641 0 12.9542C0 16.212 0.0140625 16.6198 0.0703125 17.8995C0.126563 19.1745 0.332812 20.0511 0.628125 20.8105C0.9375 21.6027 1.34531 22.273 2.01563 22.9386C2.68125 23.6042 3.35156 24.0167 4.13906 24.3214C4.90313 24.6167 5.775 24.823 7.05 24.8792C8.32969 24.9355 8.7375 24.9495 11.9953 24.9495C15.2531 24.9495 15.6609 24.9355 16.9406 24.8792C18.2156 24.823 19.0922 24.6167 19.8516 24.3214C20.6391 24.0167 21.3094 23.6042 21.975 22.9386C22.6406 22.273 23.0531 21.6027 23.3578 20.8152C23.6531 20.0511 23.8594 19.1792 23.9156 17.9042C23.9719 16.6245 23.9859 16.2167 23.9859 12.9589C23.9859 9.7011 23.9719 9.29329 23.9156 8.0136C23.8594 6.7386 23.6531 5.86204 23.3578 5.10266C23.0625 4.30579 22.6547 3.63547 21.9844 2.96985C21.3188 2.30422 20.6484 1.89172 19.8609 1.58704C19.0969 1.29172 18.225 1.08547 16.95 1.02922C15.6656 0.968286 15.2578 0.954224 12 0.954224Z" fill="white"/>
<path d="M12 6.79016C8.59688 6.79016 5.83594 9.5511 5.83594 12.9542C5.83594 16.3573 8.59688 19.1183 12 19.1183C15.4031 19.1183 18.1641 16.3573 18.1641 12.9542C18.1641 9.5511 15.4031 6.79016 12 6.79016ZM12 16.9527C9.79219 16.9527 8.00156 15.162 8.00156 12.9542C8.00156 10.7464 9.79219 8.95579 12 8.95579C14.2078 8.95579 15.9984 10.7464 15.9984 12.9542C15.9984 15.162 14.2078 16.9527 12 16.9527Z" fill="white"/>
<path d="M19.8469 6.54636C19.8469 7.34324 19.2 7.98543 18.4078 7.98543C17.6109 7.98543 16.9688 7.33855 16.9688 6.54636C16.9688 5.74949 17.6156 5.1073 18.4078 5.1073C19.2 5.1073 19.8469 5.75418 19.8469 6.54636Z" fill="white"/>
</g>
<defs>
<clipPath id="clip0_74_1898">
<rect width="24" height="24" fill="white" transform="translate(0 0.954224)"/>
</clipPath>
</defs>
</svg>
