<svg width="25" height="24" viewBox="0 0 25 24" fill="none" xmlns="http://www.w3.org/2000/svg">
<g clip-path="url(#clip0_42_1648)">
<path d="M21.5 1.00049H3.5C2.70435 1.00049 1.94129 1.31656 1.37868 1.87917C0.81607 2.44178 0.5 3.20484 0.5 4.00049L0.5 23.0005H24.5V4.00049C24.5 3.20484 24.1839 2.44178 23.6213 1.87917C23.0587 1.31656 22.2956 1.00049 21.5 1.00049ZM3.5 3.00049H21.5C21.7652 3.00049 22.0196 3.10584 22.2071 3.29338C22.3946 3.48092 22.5 3.73527 22.5 4.00049V4.66749L14.622 12.5465C14.0584 13.1078 13.2954 13.423 12.5 13.423C11.7046 13.423 10.9416 13.1078 10.378 12.5465L2.5 4.66749V4.00049C2.5 3.73527 2.60536 3.48092 2.79289 3.29338C2.98043 3.10584 3.23478 3.00049 3.5 3.00049ZM2.5 21.0005V7.50049L8.964 13.9605C9.90263 14.8967 11.1743 15.4225 12.5 15.4225C13.8257 15.4225 15.0974 14.8967 16.036 13.9605L22.5 7.50049V21.0005H2.5Z" fill="white"/>
</g>
<defs>
<clipPath id="clip0_42_1648">
<rect width="24" height="24" fill="white" transform="translate(0.5)"/>
</clipPath>
</defs>
</svg>
