<svg width="25" height="24" viewBox="0 0 25 24" fill="none" xmlns="http://www.w3.org/2000/svg">
<g clip-path="url(#clip0_42_1637)">
<path d="M14.7002 16.261C11.7886 15.0282 9.47325 12.7075 8.2472 9.793L11.6472 6.387L5.3872 0.122L2.2162 3.292C1.6662 3.84514 1.23134 4.50186 0.936795 5.22415C0.642247 5.94645 0.493852 6.71998 0.500195 7.5C0.500195 14.748 9.75219 24 17.0002 24C17.7801 24.0068 18.5536 23.8586 19.2758 23.5641C19.998 23.2695 20.6545 22.8344 21.2072 22.284L24.3782 19.113L18.1132 12.848L14.7002 16.261ZM19.7922 20.87C19.425 21.234 18.989 21.5214 18.5097 21.7154C18.0304 21.9094 17.5172 22.0061 17.0002 22C10.7672 22 2.5002 13.733 2.5002 7.5C2.49431 6.98283 2.59116 6.46964 2.78514 5.99019C2.97911 5.51074 3.26635 5.07458 3.6302 4.707L5.3872 2.95L8.8242 6.387L5.88919 9.322L6.13419 9.936C6.85544 11.8653 7.98296 13.6171 9.44035 15.0725C10.8977 16.528 12.6509 17.6533 14.5812 18.372L15.1872 18.603L18.1132 15.676L21.5502 19.113L19.7922 20.87ZM14.5002 2V0C17.1515 0.0029116 19.6933 1.05742 21.568 2.93215C23.4428 4.80688 24.4973 7.34873 24.5002 10H22.5002C22.4978 7.879 21.6542 5.84555 20.1544 4.34578C18.6546 2.846 16.6212 2.00238 14.5002 2ZM14.5002 6V4C16.091 4.00159 17.6162 4.63424 18.7411 5.75911C19.866 6.88399 20.4986 8.40919 20.5002 10H18.5002C18.5002 8.93913 18.0788 7.92172 17.3286 7.17157C16.5785 6.42143 15.5611 6 14.5002 6Z" fill="white"/>
</g>
<defs>
<clipPath id="clip0_42_1637">
<rect width="24" height="24" fill="white" transform="translate(0.5)"/>
</clipPath>
</defs>
</svg>
