<svg width="24" height="25" viewBox="0 0 24 25" fill="none" xmlns="http://www.w3.org/2000/svg">
<path d="M23.7609 8.15427C23.7609 8.15427 23.5266 6.49959 22.8047 5.77302C21.8906 4.81677 20.8688 4.81208 20.4 4.75583C17.0438 4.51208 12.0047 4.51208 12.0047 4.51208H11.9953C11.9953 4.51208 6.95625 4.51208 3.6 4.75583C3.13125 4.81208 2.10938 4.81677 1.19531 5.77302C0.473438 6.49959 0.24375 8.15427 0.24375 8.15427C0.24375 8.15427 0 10.0996 0 12.0402V13.859C0 15.7996 0.239062 17.7449 0.239062 17.7449C0.239062 17.7449 0.473437 19.3996 1.19062 20.1261C2.10469 21.0824 3.30469 21.0496 3.83906 21.1527C5.76094 21.3355 12 21.3918 12 21.3918C12 21.3918 17.0438 21.3824 20.4 21.1433C20.8688 21.0871 21.8906 21.0824 22.8047 20.1261C23.5266 19.3996 23.7609 17.7449 23.7609 17.7449C23.7609 17.7449 24 15.8043 24 13.859V12.0402C24 10.0996 23.7609 8.15427 23.7609 8.15427ZM9.52031 16.0668V9.32146L16.0031 12.7058L9.52031 16.0668Z" fill="white"/>
</svg>
